<?xml version="1.0" encoding="utf-8"?>
<!-- Generator: Adobe Illustrator 24.0.0, SVG Export Plug-In . SVG Version: 6.00 Build 0)  -->
<svg version="1.1" id="Layer_1" xmlns="http://www.w3.org/2000/svg" xmlns:xlink="http://www.w3.org/1999/xlink" x="0px" y="0px"
	 viewBox="0 0 841.9 595.3" style="enable-background:new 0 0 841.9 595.3;" xml:space="preserve">
<style type="text/css">
	.st0{fill-rule:evenodd;clip-rule:evenodd;}
	.st1{fill-rule:evenodd;clip-rule:evenodd;fill:#F6F5E7;}
	.st2{fill-rule:evenodd;clip-rule:evenodd;fill:#ED171F;}
	.st3{clip-path:url(#SVGID_2_);fill-rule:evenodd;clip-rule:evenodd;fill:#F6F5E7;}
	.st4{fill-rule:evenodd;clip-rule:evenodd;fill:#D1830C;}
	.st5{fill-rule:evenodd;clip-rule:evenodd;fill:#FBA99A;}
	.st6{fill-rule:evenodd;clip-rule:evenodd;fill:#FFFFFF;}
	.st7{fill-rule:evenodd;clip-rule:evenodd;fill:#FEE8BB;}
	.st8{fill-rule:evenodd;clip-rule:evenodd;fill:#FB1927;}
	.st9{fill-rule:evenodd;clip-rule:evenodd;fill:#FED17A;}
	.st10{fill-rule:evenodd;clip-rule:evenodd;fill:#7E8585;}
	.st11{fill-rule:evenodd;clip-rule:evenodd;fill:#FFF079;}
	.st12{fill-rule:evenodd;clip-rule:evenodd;fill:#C4C4C4;}
	.st13{fill-rule:evenodd;clip-rule:evenodd;fill:#59B224;}
</style>
<g>
	<path class="st0" d="M437.2,133.8c-2.4,4.4-3.9,9.2-4.7,14.4l-1.3-9.2l-0.6-4.7l2.7-0.2L437.2,133.8 M477.1,154.4
		c0,3.4-0.5,6.5-1.6,9.2c-1.1,2.7-2.5,4.9-4.3,6.6c-1.8,1.6-3.8,2.4-6,2.4c-2.2,0-4.2-0.8-6.1-2.4c-1.8-1.7-3.2-3.9-4.3-6.6
		c-1.1-2.8-1.6-5.8-1.6-9.2c0-3.4,0.5-6.5,1.6-9.2c1.1-2.7,2.5-5,4.3-6.6c1.8-1.6,3.8-2.5,6.1-2.5c2.2,0,4.2,0.9,6,2.5
		c1.8,1.6,3.2,3.9,4.3,6.6C476.6,147.8,477.1,150.9,477.1,154.4z M513.9,142.9l-2.4,4.8l-1.7-5l-5-14.9l-2.4-7.2l-1.8-5.3l-0.7-2
		l-8.6,21.8c-1.9-3.8-4.2-7.1-7-10c-2.8-2.8-5.9-5-9.4-6.6c-3.4-1.6-7.1-2.4-11.1-2.4c-3.7,0-7.1,0.7-10.5,2.1
		c-3.3,1.4-6.3,3.4-9.1,6l-5.5-12.2l-43.7,7.1l-5.3,21.5l1.5-0.2l3.8-0.5l4.8-0.8l4.6-0.7l3-0.5l0.7,4.3c2.1,16.2,4.6,32.3,6.7,48.4
		l0.4,2.8l22.8-2.6l-0.3-2.4l-0.8-6.3l-1.2-8.9c1.8,4.1,4.2,7.6,7,10.7c2.8,3.1,6.1,5.4,9.6,7.1c3.6,1.7,7.4,2.6,11.4,2.6
		c2.9,0,5.6-0.4,8.3-1.3c2.6-0.8,5.1-2.1,7.5-3.7l17.2,6l0.8-2l1.6-4.8l2-6.1l1.9-5.5l1.8,4.9l1.9,5.6l1.6,4.5l0.7,2l1.1-2l2.6-4.5
		l3.2-5.5l2.6-4.6l1.4,5l1.7,5.7l1.4,4.6l0.5,1.9l18.7-4l-14.2-75.7l-1,2.1l-2.6,5.2l-3.6,7l-3.8,7.6L513.9,142.9z"/>
	<path class="st0" d="M554.3,147l-0.6,1.8c-0.7,0.5-1.3,1-1.8,1.2c0-0.5,0.2-1.2,0.6-1.9l1.2-2.1c0.4-0.7,0.8-1.1,1.1-1.2l0.4,0
		L554.3,147 M583.3,138l1.2,0.4l-0.5,1.9l-0.5,1.9l-1-0.2l-0.6-0.8l-0.1-0.7c0-0.7,0.3-1.3,0.6-1.7L583.3,138z M587.5,126.1l-1,3.4
		l-0.9,3l-2.6-0.3c-1,0.1-1.9,0.6-2.7,1.3c-1.1,1.1-2,2.4-2.7,3.9c-0.6,1.5-1.1,2.8-1.4,4.1l-0.6,2.8l-0.4,0.4l-0.6-0.4l-0.7-0.8
		l0.3-1.2l0.6-1.5l0.8-2.2c0.3-0.7,0.4-1.3,0.4-1.9c0-0.6-0.2-1.2-0.6-1.7c-0.4-0.4-0.9-0.6-1.5-0.5c-0.7,0-1.4,0.3-2.1,0.8L570,137
		l-0.5-0.3c-0.6-0.3-1.3-0.4-1.9-0.4c-0.6,0-1.2,0.3-1.7,0.7c-0.4,0.3-0.7,0.8-0.9,1.5l-0.6,2.7l-0.5,2.5l-0.9,2.4
		c-0.3,0.7-0.7,1.1-1.1,1.1h-0.2c-0.2-0.3-0.1-1.1,0.2-2.5c0.3-1.4,0.8-2.9,1.6-4.7l1.8-4l-0.9,0.5l-2.1,1.2l-2.3,1.3l-1.5,0.8
		c-0.6-0.4-1.1-0.6-1.6-0.6l-1.3,0c-2.5,0.3-5.1,2.7-7.9,7.4c-1.1,1.9-1.8,3.4-1.8,4.7c-0.1,1.2,0.1,2.2,0.5,2.9
		c0.3,0.6,0.7,1.1,1.2,1.5l1.8,0.6c1,0,2.1-0.3,3.3-1.1l3.2-2.4l1.1,0.6l1.5,0.3l1.6-0.4l1.1-1l0.4,0.4l0.3,0.3l0.5,0
		c1.1,0.1,2-0.1,2.8-0.8c0.8-0.6,1.3-1.2,1.7-1.8l0.1-0.3l0-0.2l0.8-2.4l1.1-2l0.3,1.2c0.1,0.5,0.3,1.1,0.6,1.8
		c0.3,0.6,0.9,1.1,1.7,1.2l-5.8,2.6l-5.5,2.4l-4.1,1.8l-1.6,0.6l-2.6,10.4l41.8-21l-1.5-3l-1.1,0.2l-0.9-0.1c-0.4-0.1-0.7-0.4-0.9-1
		c-0.1-0.5,0-1.6,0.4-3.4l1.6-6.3c0.7-2.4,1.4-4.8,2.2-7.2l0.7-2.2l-6.1,0.9L587.5,126.1z"/>
	<g>
		<path class="st0" d="M683.4,147.9l0.6-4l0.8-5.2l0.7-4.5l2.1,1.5l1.7,2c0.5,0.7,0.7,1.6,0.7,2.4v0.5c-0.3,3.1-1.3,5.1-2.9,6.3
			l-1.9,0.8L683.4,147.9 M732.6,134.5l0.2,1.8c0,1.1-0.3,2-0.8,2.7l-1.1,1l-1.3,0.6l-0.4-3l-0.4-3.3l-0.3-2.9c0.9,0,1.8,0.2,2.6,0.7
			C732,132.6,732.4,133.3,732.6,134.5z M761.4,147.2l1.5,2.4l-0.3,3.3L762,160l-0.9,9l-5.4-6.4l-5.2-6l-3.1-3.6
			c0.9-0.8,1.8-1.9,2.8-3.4c1-1.5,2-3.3,2.7-5.5c0.7-2.2,1.1-4.9,1.2-7.9v-0.7l4,6.5L761.4,147.2z M790.1,113.2l-2.1,2l-4.7,4.4
			l-5.3,5l-3.6,3.4l-2.2-3.1l-3.4-4.5l-3.6-5l-2.9-3.8l-1.1-1.6l-12.7,9.9c-1.2-1.5-2.7-2.8-4.3-3.9c-4.3-3-9.7-4.9-16.1-5.6
			c-6.4-0.7-13.7-0.3-21.9,1.4l-2,0.4l2.6,16.8c-1.6-2.1-3.8-4-6.8-5.7c-3-1.6-6.9-3.2-11.9-4.5c-5-1.4-11.2-2.5-18.7-3.5l-2-0.2
			l-9.2,53.2l-3.6,0.5l-2.5,0.4l-0.7-2.6l-0.8-3.1l-0.8-2.7l2.6-0.8l3.3-1.1l2.8-0.8l1.2-0.4l-2.9-16l-1.2,0.4l-2.8,0.8l-3.3,1
			l-2.6,0.8l-1-3.8l-1.3-4.7l-1.1-3.8l3.7-0.9l5.1-1.3l4.5-1.1l1.9-0.5l-5-15.7l-30.3,5l0.1-3.9l-18.2,2.2l-0.6,41.9
			c0,1.8-0.3,3.6-0.6,5.5c-0.3,2-0.8,3.7-1.5,5c-0.7,1.4-1.4,2.2-2.2,2.3c-1.3,0-2.4-0.2-3.2-0.7c-0.8-0.5-1.3-1.1-1.6-1.7l-0.7-1.2
			l-1.1-3.4l-13.2,14.1l0.8,1.4l1.5,2.1c0.9,1.2,2.2,2.6,3.8,4.1c1.7,1.5,3.7,2.8,6.1,3.9c2.4,1.1,5.1,1.6,8.2,1.6
			c3.8-0.2,7.1-1.1,9.7-2.9c2.7-1.6,4.9-3.7,6.6-6.2c1.7-2.5,2.9-5,3.8-7.6c0.8-2.6,1.3-4.9,1.6-6.9l0.3-21.1l11.4,44.2l20.8-3.4
			l-0.4,2.2l19.8,4.5l0.5-1.8l1.1-4.6l1.5-6.1l1.6-6.3l1.3-5.2l2.5,4.9l3.1,5.9l3,5.8l2.3,4.4l0.8,1.8l17.1-6.8l-0.8-2.1l-2-5.1
			l-2.4-6.3l-2.2-5.7l-1.2-3.3l3-3.1l3.7-4.6c1.2-1.8,2.2-3.7,3-5.8l6.3,40.1l20.8-2.1l-0.3-2l-0.8-5l-1-6.3l-0.9-6l4.8,5.3
			l9.5,10.3l1.8,1.9l9.7-6.6l-0.5,5.9l-0.2,2.3l19.7,0.3l0.1-2.8l0.2-7.1l0.3-9.3l0.3-9.4l0.2-7.4l0.1-3.4l2.6-2.9l5.4-5.7l6.2-6.7
			l5.2-5.5l2.1-2.3L790.1,113.2z"/>
	</g>
	<path class="st1" d="M434.3,109.3l-43.7,7l-5.3,21.5l1.5-0.3l3.8-0.5l4.7-0.7l4.6-0.7l3.1-0.5l0.6,4.3c2.1,16.2,4.6,32.3,6.8,48.4
		l0.4,2.8l22.8-2.6l-0.4-2.9c-2.1-16.4-4.5-32.8-6.6-49.3l-0.5-4.4l3.1-0.3l4.5-0.3l4.7-0.4l3.7-0.3l1.5-0.1L434.3,109.3"/>
	<polyline class="st2" points="439.2,128.4 422.3,129.6 430,186.4 411.4,188.5 403.6,132.7 387,135.4 391.2,118.2 431.8,111.7 
		439.2,128.4 	"/>
	<path class="st1" d="M471.8,116.4c-3.9-2-8-2.9-12.4-3c-4.5,0-8.7,1-12.5,3c-3.8,2.1-7.2,4.8-10.1,8.4c-2.9,3.6-5.2,7.7-6.9,12.4
		c-1.6,4.7-2.5,9.7-2.5,15.1c0,5.4,0.9,10.4,2.5,15.1c1.7,4.7,4,8.8,6.9,12.3c2.9,3.6,6.3,6.3,10.1,8.3c3.9,2.1,8.1,3.1,12.5,3.1
		c4.4,0,8.6-1.1,12.4-3.1c3.8-2,7.2-4.7,10.1-8.3c2.9-3.5,5.3-7.7,6.9-12.3c1.6-4.7,2.5-9.7,2.5-15.1c0-5.4-0.9-10.5-2.5-15.1
		c-1.6-4.7-4-8.7-6.9-12.3C479,121.2,475.6,118.4,471.8,116.4 M470.8,160.8c-1.1,2.8-2.5,5-4.3,6.6c-1.8,1.6-3.8,2.5-6,2.5
		c-2.2,0-4.2-0.9-6-2.5c-1.8-1.6-3.2-3.8-4.3-6.6c-1.1-2.8-1.6-5.8-1.6-9.2c0-3.4,0.5-6.5,1.6-9.3c1.1-2.8,2.5-5,4.3-6.6
		c1.8-1.6,3.8-2.5,6-2.5c2.2,0,4.2,0.9,6,2.5c1.8,1.6,3.2,3.8,4.3,6.6c1.1,2.8,1.6,5.9,1.6,9.3C472.4,154.9,471.9,158,470.8,160.8z"
		/>
	<path class="st2" d="M469.8,118.4c-3.7-1.9-7.5-2.8-11.7-2.9c-4.2,0-8,1-11.6,2.9c-3.6,1.9-6.8,4.5-9.5,7.9
		c-2.7,3.3-4.8,7.2-6.4,11.6c-1.5,4.4-2.3,9.2-2.4,14.2c0,5.1,0.8,9.9,2.4,14.3c1.6,4.4,3.7,8.3,6.4,11.6c2.7,3.4,5.9,6,9.5,7.9
		c3.6,1.9,7.4,2.9,11.6,2.9c4.1,0,8-1,11.6-2.9c3.6-1.9,6.8-4.5,9.5-7.9c2.7-3.3,4.9-7.2,6.4-11.6c1.6-4.4,2.4-9.2,2.4-14.3
		c0-5.1-0.8-9.9-2.4-14.3c-1.5-4.4-3.6-8.3-6.3-11.6C476.5,122.9,473.4,120.3,469.8,118.4 M471.4,161.9c-1.3,3.1-2.9,5.5-5,7.3
		c-2.1,1.8-4.5,2.8-7.1,2.8c-2.6,0-5-1-7.1-2.8c-2.1-1.8-3.8-4.3-5-7.4c-1.2-3.1-1.9-6.5-1.9-10.3c0-3.8,0.7-7.3,1.9-10.4
		c1.3-3.1,2.9-5.5,5-7.3c2.1-1.8,4.5-2.7,7.1-2.8c2.6,0,5,1,7.1,2.8c2.1,1.8,3.8,4.2,5,7.3c1.2,3.1,1.9,6.6,1.9,10.4
		C473.3,155.4,472.7,158.8,471.4,161.9z"/>
	<polyline class="st1" points="512.8,133.3 509.3,140.2 506.9,145 505.2,140 502.8,132.9 500.3,125.1 497.9,117.9 496.1,112.6 
		495.5,110.5 484.6,138 470.9,184.5 492.4,192 493.1,190 494.7,185.2 496.8,179.1 498.7,173.6 500.5,178.5 502.4,184.1 504.1,188.7 
		504.7,190.5 505.9,188.6 508.5,184.1 511.6,178.6 514.2,174 515.7,179 517.4,184.6 518.7,189.2 519.3,191.1 538.1,187.1 
		523.9,111.5 522.9,113.5 520.2,118.7 516.6,125.7 512.8,133.3 	"/>
	<polyline class="st2" points="485.4,138.7 472.3,183.2 489.8,189.3 497.5,167.2 504,185.5 513.6,168.7 519.6,188.7 534.3,185.5 
		521.7,118.1 505.2,150.5 494.1,116.8 485.4,138.7 	"/>
	<path class="st1" d="M552.9,143.8l0.4,0l-0.8,2.2l-0.7,1.9L550,149c0-0.5,0.2-1.2,0.6-1.9c0.3-0.8,0.7-1.5,1.2-2.1
		C552.2,144.3,552.6,143.9,552.9,143.8 M580.1,140.2l-0.1-0.7c0-0.7,0.3-1.3,0.7-1.7l0.8-0.8l1.2,0.4l-0.5,1.9l-0.4,1.9l-1-0.2
		L580.1,140.2z M586,123.5l-0.5,1.6l-1,3.4l-0.9,3l-2.6-0.3c-1,0.1-1.9,0.6-2.8,1.3c-1.1,1.1-2,2.4-2.7,3.9c-0.6,1.5-1,2.8-1.3,4.1
		l-0.6,2.8l-0.4,0.4c-0.1,0-0.3-0.1-0.6-0.4l-0.7-0.8l0.3-1.2l0.6-1.5l0.8-2.2c0.3-0.7,0.4-1.3,0.4-1.9c0-0.6-0.2-1.2-0.6-1.6
		c-0.4-0.4-0.9-0.6-1.5-0.5c-0.7,0-1.4,0.3-2.1,0.8c-0.7,0.5-1.3,1-2,1.7l-0.5-0.3l-1.9-0.4c-0.6,0-1.1,0.3-1.7,0.7
		c-0.4,0.3-0.7,0.8-0.9,1.5l-0.6,2.7l-0.6,2.5l-0.8,2.5c-0.3,0.7-0.7,1.1-1.1,1.1h-0.2c-0.2-0.3-0.1-1.2,0.2-2.6
		c0.3-1.4,0.8-2.9,1.6-4.7l1.9-4l-0.9,0.5l-2.1,1.2L558,138l-1.5,0.8c-0.5-0.4-1.1-0.6-1.6-0.7l-1.3,0c-2.5,0.3-5.1,2.7-7.9,7.4
		c-1.1,1.9-1.7,3.4-1.8,4.7c-0.1,1.2,0,2.2,0.4,2.9c0.3,0.6,0.7,1.1,1.3,1.5c0.5,0.4,1.1,0.6,1.7,0.6c1,0.1,2.1-0.3,3.3-1
		c1.2-0.8,2.3-1.6,3.2-2.4l1.1,0.6l1.5,0.3l1.6-0.4l1.1-1l0.5,0.4l0.3,0.3l0.5,0c1.1,0.1,2.1-0.1,2.9-0.8c0.8-0.6,1.3-1.2,1.7-1.8
		l0.1-0.3l0-0.2l0.8-2.4c0.4-0.8,0.8-1.4,1.1-1.9l0.3,1.1c0.1,0.5,0.3,1.1,0.6,1.8c0.3,0.7,0.9,1.1,1.7,1.2l-5.8,2.6l-5.6,2.4
		l-4,1.8l-1.6,0.6l-2.6,10.4l41.7-21l-1.5-3l-1.1,0.2l-0.8-0.1c-0.4-0.1-0.8-0.4-1-1c-0.1-0.5,0-1.6,0.4-3.4l1.6-6.3
		c0.7-2.4,1.4-4.8,2.1-7.2l0.7-2.2L586,123.5z"/>
	<path class="st2" d="M551.8,148.8l-0.8,0.7l-1.8,0.9c-0.6,0.3-1.2,0.1-1.6-0.3c-0.3-0.5-0.3-1.4,0.1-2.5c0.4-1.1,0.9-2.2,1.6-3.2
		c0.7-1,1.4-1.6,2-1.8l2,0.1l0.5,0.3L551.8,148.8 M583,136.8l-1.5,5.9h-0.9l-1.8-0.4c-0.6-0.3-1.1-0.9-1.3-1.7
		c-0.3-1.3-0.2-2.3,0.4-3.1c0.5-0.8,1.1-1.4,1.7-1.7c0.4-0.2,0.8-0.2,1.3,0l1.4,0.6L583,136.8z M585.9,143.8
		c-0.5-0.3-0.9-0.8-1.2-1.5c-0.2-0.5-0.2-1.4,0.1-2.8l1-4.6l1.3-4.9l1.2-4.1l0.5-1.6l-2.9,0.4l-2.5,8.6l-0.9-0.4l-2-0.4
		c-0.8,0-1.6,0.3-2.4,1.1c-0.9,0.8-1.6,1.8-2.2,3c-0.5,1.1-1,2.3-1.3,3.4l-0.6,2.8l-0.2,1.1c-0.5,0.8-1.1,1.2-1.6,1.3
		c-0.5,0-1-0.1-1.4-0.5c-0.5-0.3-0.8-0.7-1-1l-0.4-0.5c-0.1-0.5,0-1.3,0.5-2.4l1.3-3.3c0.4-1.1,0.5-1.9,0.2-2.3
		c-0.5-0.3-1-0.2-1.7,0.3l-2,1.8l-1,1.1c0-0.5-0.4-0.9-1.1-1.3c-0.7-0.3-1.4-0.3-2.1,0.2c-0.3,0.3-0.5,1-0.8,2.1l-0.8,3.5
		c-0.3,1.3-0.8,2.4-1.3,3.4c-0.5,0.9-1.3,1.4-2.2,1.4c-0.9-0.1-1.4-0.6-1.6-1.5c-0.1-0.9,0-2,0.3-3.2l1.1-3.1l0.6-1.4l-3.8,2.1
		c-1-1-2.1-1.3-3.1-0.9c-1.1,0.3-2.2,1.1-3.3,2.4c-1,1.2-2.1,2.6-3.1,4.3c-1,1.6-1.5,2.9-1.6,4.1c-0.1,1.1,0.1,1.9,0.5,2.5
		c0.5,0.6,1.1,0.9,1.7,1c0.7,0,1.5-0.3,2.5-0.9l2.6-2l1.2-1.1l0.8,0.8c0.5,0.5,1.1,0.7,1.8,0.7c0.5,0,0.9-0.2,1.3-0.5l0.8-1l0.2-0.5
		l1.8,1.5c0.6,0,1.2-0.1,1.6-0.4l1.1-1l0.3-0.5c0.2-1.1,0.6-2.1,1.1-3c0.5-0.9,0.9-1.6,1.3-2.2l0.6-0.9c0.9,0.2,1.4,0.7,1.6,1.5
		l0.5,2.2c0.2,0.7,0.6,1.1,1.2,1.1c0.7,0,1.3-0.2,1.8-0.5l1.1-0.8l0.4-0.4l2.5-0.8l1.7,0.6l1.5,0.3l0.7,0.1l-25.9,11.1l-1.7,6.8
		l37.7-19l-0.4-0.8l-0.7,0C586.9,144.2,586.4,144.1,585.9,143.8z"/>
	<path class="st1" d="M599.6,161.3c-0.3,1.9-0.8,3.6-1.4,5c-0.7,1.4-1.4,2.2-2.3,2.3c-1.3,0-2.4-0.2-3.2-0.7
		c-0.8-0.5-1.3-1.1-1.6-1.7l-0.6-1.1l-1.1-3.4l-13.2,14.1l0.8,1.3l1.4,2.1c0.9,1.2,2.2,2.6,3.9,4.1c1.6,1.5,3.7,2.8,6.1,3.9
		c2.4,1.1,5.1,1.6,8.2,1.6c3.8-0.2,7-1.1,9.7-2.8c2.6-1.7,4.8-3.8,6.6-6.3c1.7-2.5,2.9-5,3.8-7.7c0.8-2.6,1.3-4.9,1.6-6.9l0.9-53.5
		l-18.2,2.3l-0.6,41.8C600.2,157.5,600,159.4,599.6,161.3"/>
	<path class="st2" d="M601.7,115.7l14-1.7l-0.9,50.8l-0.3,2.2c-0.3,1.4-0.8,3.2-1.5,5.3c-0.7,2.1-1.8,4.2-3.3,6.3
		c-1.5,2.1-3.4,4-5.7,5.5c-2.4,1.5-5.3,2.3-8.8,2.5c-2.7,0-5.2-0.5-7.4-1.4c-2.2-1.1-4-2.3-5.6-3.7c-1.5-1.4-2.6-2.6-3.4-3.7
		l-1.2-1.7l9.7-10.3l0.4,0.9c0.3,0.5,0.7,1.1,1.2,1.8c0.6,0.7,1.4,1.3,2.4,1.7c1,0.5,2.1,0.7,3.6,0.7c1.2-0.2,2.2-0.8,3-1.8
		c0.8-1,1.4-2.2,1.9-3.7l1-4.4l0.5-3.6l0.1-1.5L601.7,115.7"/>
	<polyline class="st1" points="654.4,126.2 649.4,110.5 611.5,116.7 629.9,188.1 665.9,182.1 663.7,164.5 661.6,164.8 651.5,166.3 
		647.7,166.8 647.1,164.2 646.2,161.2 645.4,158.4 648,157.6 651.4,156.5 654.2,155.7 655.4,155.2 652.6,139.3 651.4,139.6 
		648.5,140.5 645.2,141.5 642.6,142.3 641.5,138.5 640.3,133.8 639.2,130 642.9,129.1 647.9,127.9 652.4,126.7 654.4,126.2 	"/>
	<polyline class="st2" points="612.9,118.5 630.2,185.7 662.2,180.4 660.6,166.9 645,169.3 641.6,157 651.7,153.8 649.6,142 
		639.9,145 635.3,128.5 650.4,124.8 646.6,112.9 612.9,118.5 	"/>
	<path class="st1" d="M681.1,131.9c0.6,0.4,1.3,0.9,2,1.4c0.7,0.5,1.3,1.2,1.8,2c0.5,0.7,0.7,1.6,0.8,2.5l0,0.5
		c-0.3,3.1-1.3,5.1-2.9,6.3c-0.5,0.5-1.2,0.7-1.9,0.8l-1.8,0.1l0.7-4l0.8-5.2L681.1,131.9 M695,120.6c-3-1.6-6.9-3.1-11.8-4.4
		c-4.9-1.3-11-2.4-18.2-3.2l-2-0.3l-12.7,74.2l19.8,4.5l0.5-1.8l1.1-4.6l1.5-6.1l1.6-6.3l1.3-5.2l2.6,4.9l3,6l3,5.8l2.3,4.4l0.9,1.8
		l17-6.7l-0.8-2.1l-1.9-5.1l-2.4-6.3l-2.2-5.7l-1.2-3.3l2.9-3l3.6-4.6c1.1-1.8,2.1-3.7,3-5.7c0.8-2.1,1.2-4.2,1.3-6.4l-0.1-1.7
		c-0.3-2.5-0.8-4.9-1.5-7.2c-0.7-2.2-1.9-4.3-3.4-6.3C700.3,124,698,122.3,695,120.6z"/>
	<path class="st2" d="M686.5,138.4c-0.3,2.9-1.1,5.1-2.2,6.4c-1.1,1.3-2.4,2.2-3.8,2.5l-3.6,0.3l-1.6-0.3l3-18.6l1.3,0.6
		c0.9,0.4,1.9,1,3,1.8c1.1,0.8,2.1,1.8,2.9,3C686.3,135.4,686.6,136.8,686.5,138.4 M703.6,139.7c-0.2-2.1-0.5-4.1-1.1-6.1
		c-0.5-2-1.4-3.9-2.8-5.8c-1.4-1.8-3.6-3.5-6.4-5.1c-2.8-1.6-6.6-3.1-11.5-4.4c-4.8-1.3-10.9-2.4-18.3-3.3l-12,70.2l15.8,3.6
		l6.8-27.4l13.5,26.1l13.3-5.3l-8.4-21.9l1.3-1.2l3-3.1l3.5-4.6c1.1-1.8,2-3.6,2.7-5.6C703.6,143.8,703.8,141.8,703.6,139.7z"/>
	<g>
		<defs>
			<rect id="SVGID_1_" x="699.9" y="107.6" width="62.1" height="80"/>
		</defs>
		<clipPath id="SVGID_2_">
			<use xlink:href="#SVGID_1_"  style="overflow:visible;"/>
		</clipPath>
		<path class="st3" d="M724,129c1,0,1.8,0.3,2.7,0.8c0.7,0.5,1.2,1.3,1.5,2.4l0.1,1.7c0,1.1-0.3,2.1-0.8,2.8l-1.1,1l-1.3,0.7l-0.3-3
			l-0.4-3.3L724,129 M746.1,120.2c-1.6-2.6-3.7-4.8-6.3-6.7c-4.3-3-9.6-4.8-16.1-5.5c-6.4-0.7-13.7-0.3-21.9,1.4l-1.9,0.4l12.2,77.8
			l20.9-2.1l-0.4-2l-0.7-5l-1.1-6.3l-1-6l10.1,11l4.2,4.6l1.8,1.9l15.9-10.7l-1.7-2.1l-9.5-11.1l-4.8-5.6l-2.9-3.4l2.9-3.4
			c1-1.5,1.9-3.4,2.6-5.6c0.7-2.2,1.1-4.8,1.1-7.9l-0.4-5C748.8,125.7,747.7,122.8,746.1,120.2z"/>
	</g>
	<path class="st2" d="M724.3,127c1,0.2,2,0.6,2.9,1.3c0.9,0.7,1.6,1.8,1.9,3.4c0.4,2.1,0.3,3.9-0.4,5.1c-0.5,1.2-1.4,2.1-2.4,2.7
		c-1,0.5-1.9,0.9-2.8,1.1l-1.3,0.2l-1.6-13.7l1.1-0.1L724.3,127 M746,129.2c-0.8-5.1-3.1-9.2-6.9-12.5c-3.7-3.2-8.8-5.3-15.3-6.3
		c-6.4-1-14-0.6-22.8,1.2l11.6,73.8l16.6-1.7l-3.8-24l19.6,21.3l12.5-8.4l-18.8-21.9l1.5-1.3c0.9-0.8,1.9-2,3-3.7
		c1.1-1.7,2-3.9,2.5-6.6C746.4,136.2,746.5,133,746,129.2z"/>
	<polyline class="st1" points="783.5,112.8 778.9,117.2 773.6,122.2 770.1,125.6 767.8,122.5 764.4,117.9 760.8,113 758,109.2 
		756.9,107.6 741.2,119.8 742.4,121.8 745.5,126.7 749.6,133.1 753.7,139.6 756.9,144.8 758.5,147.2 758.2,150.5 757.5,157.7 
		756.7,166.8 755.8,175.7 755.3,182.5 755,185.2 774.8,185.5 774.8,182.7 775.1,175.7 775.4,166.3 775.7,157 775.9,149.6 
		776.1,146.1 778.7,143.3 784.1,137.5 790.3,130.9 795.5,125.3 797.5,123 785.6,110.8 783.5,112.8 	"/>
	<polyline class="st2" points="784.3,113.9 768.5,128.8 755.2,110.7 742.8,120.3 759.4,146.7 756.1,183.2 771.5,183.4 772.7,145.3 
		793.4,123.1 784.3,113.9 	"/>
	<g>
		<path class="st0" d="M562.5,297.5c0,0,3.7,2.3,10.6,8.5c4.3-2.3,37.3-16.2,46.5-8.4c9.3,7.8,3.4,30.5,3.4,30.5
			c-1.8,6.7-4.6,12.7-8.3,18c-6.2,8.3-13.6,14.8-22.2,19.4c-8.8,4.4-21.9,5.4-25.3,5.2c-6.1,5-16.2,8-19.7,9c8.8,18,7.6,39.7,0,43.7
			c-7.6,3.9-16.3-6-19.4-11.1c-0.4,1.6-0.5,9.7,0.7,11.7l1.4,2.1l3.9,3.8c1.8,1.4,3.3,3.8,4.5,7.3c4.6-1.4,8.3-4.4,11.1-9
			c2.3-4.9,5.5-9.5,9.4-13.9c12.4-10.5,27-6.9,27-6.9l-10.4,3.8c-4.2,1.8-7.9,4.5-11.1,7.9c-3,3.5-5.3,7.6-6.9,12.2
			c-1.8,4.9-5,9.1-9.3,12.8l5.5,5.2l3.1-3.4c-0.9-4.4-0.4-7.2,1.7-8.4c1.7-1.3,3.6-1.3,5.9,0c3.7-2,6.6-1.7,8.7,1
			c2.1,2.8,2.8,7.2,2.1,13.2c-0.4,5.8-2.3,11.3-5.5,16.6c-3.3,5.3-7.4,7.9-12.5,7.7l-14.3-3.8l-16.3-2.8l-6.9,1.8l-9.3,2.8l-9.7,0.7
			c-1.8-0.7-3.9-0.7-6.3,0l-4.1,1.4l-8,3.8l-15.2,7.9l-3.8,2.1l-6.6,3.1c-3.4,0.9-7.4,0.2-11.7-2.1c-4.9-2.5-8.5-7.9-10.8-15.9
			c-1.4-4.6-1.4-8.5,0-11.5l5.2-7.6l3.5-3.8l5.5-0.3c1.8,1.2,3,2.8,3.4,4.9l-0.7,4.9l2.5,2c2-4.6,4.7-8.4,7.9-11.4l1.8-1.4l8.3-5.6
			c0,0-3.5-14.9,3.2-29.8c-2.4,1.6-7,3.8-9.7,5.9l-1.7,1.4l-8.7,3.1c-4.4,0.4-8-1.2-10.8-4.9l-5.9,0.3l-3.1-2.8
			c-3-0.7-4.4-2.5-4.2-5.5c0.5-3.5,4-5.9,10.4-7.3l-3.5-3.4c-1.2-1.7-0.9-3.3,0.7-4.9c1.7-1.4,4.4-1.4,8.4,0
			c3.7,1.2,7.5,4.2,11.4,9.3c0,0,24.7-33.3,45.8-32.2l-18.4-19.4c-5.6-6.5-8.7-26.4,11.8-20.8c1.3-19.3,6.8-25.7,12.4-29.2
			c-0.1-2.5,2.8-6.1,2.8-6.1s-1.8,3.7-1.6,5.6c1.1-0.8,2-1.1,2.7-1.5c1-3.1,3.8-6.8,3.8-6.8s-2.1,3.9-2.1,5.8
			c1.7-1,4.9-3.3,16.9-5.5v-3.4c-2.8-0.9-8.7,0-8.7,0s3.4-2,9-2.8c3.7-15.5,24.1-21.1,26.1-15.6
			C562.2,285.5,559.7,290.4,562.5,297.5z"/>
		<path class="st4" d="M442.4,414.7l0.4,4.5l-5.2-1.7L442.4,414.7 M433.4,414.1c0.2-1.7,1.8-3.4,4.5-5.2l8-1l-2.1,2.5l-1,2.8
			c-2.3,1.8-4.4,2.8-6.3,2.8C434.7,416,433.6,415.5,433.4,414.1z M580,407.8c-8.1,2.3-13.8,5.7-17,10.1c-3.4,4.1-6.2,8.5-8.3,13.1
			c-2.3,4.4-5.5,8.3-9.7,11.8l-5.5-1.4l-0.4-1.4c5.1-2.3,9-5.9,11.8-10.7c2.5-4.9,5.8-9.6,9.7-14.2C564.6,410.7,571,408.2,580,407.8
			z M463.2,454.9c0,0,6-5.8,9-7.2c6.1,15.9,16.6,20.8,25.3,20.5c3.6-0.4,34.4-8.6,15.9-45.2c1.7-0.6,4.9-2,4.9-2l1.7-6.3l6.6-2.1
			c-1.4,5.8-1.3,10.1,0.4,12.8l0.3,0.7l4.9,5.9c1.8,1.8,3,5,3.5,9.3c-3,0.5-6.1,1.1-8,2.8c17-3.9,24.6,7.3,24.6,7.3l-1.4,4.2
			l0.4,5.2l2-7.3l3.9-4.5c1.6,4.9,1.7,9,0.3,12.5c-1.4,3-1.8,6.8-1.4,11.4l-14.6-3.1l-15.3-2.8l-7.6,2.1l-9.3,2.1l-8.3,0.3l-6.6,0.4
			l-4.1,1.4c-3.9,1.4-8.5,3.6-13.9,6.6l-13.1,6.6l-6.9,3.1c0-2.5-0.4-5.2-1-8l-4.2-7.6c-1.6-2.5-2.3-5.4-2.1-8.7l1-1.8l4.9,4.5
			l3.5,6.9c0-4.4-1.2-7.9-3.5-10.4l8-9.3L463.2,454.9z M453.2,413.7c-2.3,0.9-2.8,2.5-1.4,4.5c1.2,2.1,2.9,2.9,5.2,2.5l-3.8-3.1
			V413.7z M455.9,406.7l4.2,4.9l3.1-3.8l4.1-0.7c0.9,1.6,0.7,3.3-0.7,5.2l-3.4,4.5c-1.7,3.3-4.5,5.3-8.7,6.2l-6.9-1.7l-2.8-2.1h-1.4
			l2.8-9l3.5-5.2l-2.5,1.7c-3-0.7-5.3-1.7-6.9-3.1c-1.6-1.8-1.8-3.3-0.7-4.5c1.8-0.9,4.1-0.9,6.6,0l5.9,3.8L455.9,406.7z
			 M511.7,384.6c3,1.2,6.8,0.4,11.1-2.4c0,0,7,0.1,10.9-2.2c-2.6,2.2-5,7-5,7s7.3-10.1,13.8-8.8c2.7,0.6,3.5,2.6,5,7.4
			c2.5,7.6,3.8,15,3.8,22.2c-0.7,6.7-2.6,10.9-5.6,12.5c-3.3,0.9-6.3,0.1-9.3-2.4l-8-7.3l1.4-6.2c-2.1,4.1-3.9,6.5-5.5,6.9l-4.9,1.4
			l-2.1,4.9l-3.1,3.1c-1.8-0.4-2.5-2.3-2.1-5.5l1.7-8.4l-2.8,4.9l-0.7,6.9c-2.8-1.4-3.7-3.4-2.8-6.2l2.4-6.9l-3.8,5.5l-5.9,1
			l-4.1-0.4c-0.5-1.6,0.3-3.1,2.4-4.5l6.6-3.5l6.3-3.4l2.4-2.4c1.2-1.2,3.1-2.2,5.9-2.8c6.2-0.5,19.4,6.9,19.4,6.9
			s-13.5-10.8-22.4-8.2c-4.2-2.7-9.1-1.2-9.1-1.2c-3,1.4-5.5,3.1-7.3,5.2c-2,2-3.3,2.8-3.8,2.4l0.7-6.6c0.9-2.8,0.2-4.9-2.1-6.3
			c2-2.3,4.5-4,7.2-5.2c-5.3,1.2-10.4,4.7-15.2,10.8c-5.1,6.2-8.8,12.5-11.1,18.7l-11.7,6.9l4.1-5.9c1.7-1.8,2-3.9,1-6.2
			c-0.7-1.4-2.1-1.8-4.1-1.4l-2.1,0.7l-3.8,3.8l-0.7-1.7c0,0,22.6-31.1,47.2-32.2C506.6,380.2,508.5,383.2,511.7,384.6z
			 M494.8,357.2c0,0-0.3,2.6,0.7,5.8c-0.9-0.9-5.5-6.2-7.3-8.3c-8.5-9.9-5.9-24,10-19.4c0.1-2,0.3-20,11.8-27.4c0,0,0.4,1.5,1.4,2.8
			c-1.7,0.8-12.5,5.5-12.2,28.8C495.4,334.8,477.9,339,494.8,357.2z M512.4,309.4l-1.4-2.5l1.4-0.7V309.4z M541.9,296.3l-8,0.2
			l0.3-2.8L541.9,296.3z M538.1,306.2c6-2.3,10-2.3,11.8,0c1.7,2.3,1,5.1-1.7,8.4c0.9-4.2,0.8-6-0.7-8
			C546,304.6,538.1,306.2,538.1,306.2z M617.8,300.3c3.2,2.9,4.3,8.4,3.8,12.5c-1.8-22.1-31.2-3.8-36.7,1c-5.8,4.4-9.9,10-12.5,16.7
			c-1.8,3.7-2.4,7.5-1.7,11.4c0.4,3.7,2.1,6.4,4.9,8c-1.7,7.2-5.2,13.1-10.8,17.7c-5.6,4.4-12.4,8.2-18.6,10c0,0-1.8-4-9.4,0.5
			c5.9-7.3,6.6-15.4,6.6-15.4l4.3,0.4c0,0-23.8-2.1-24.6-8.7c-0.7-6.1,7.2-12.8,7.2-12.8s-3,1.4-6.9,5.9c0,0-1.1-0.7-2-1.5
			c9.7-16.7,17.4-22.6,15.6-28.7c-1.1-5.1,5.2-10.8,5.2-10.8s-8.5,4.9-6.9,9c-5-4-0.4-12.8-0.4-12.8s-7,7.8-2.9,12.9
			c-5.5,1.7-10.1,6.6-13.3,12.4c-3.7,5.5-5.4,10.9-5.2,16.3l-8,1c0,0-0.9-1.1-1.7-2.1c5.4-17.8,14.3-26.5,11.4-32.3
			c-1.2-2.3-1.4-4.5-0.7-6.6c0,0,2.3-1.3,4-2.1c2.6-1.4,2.1,3.9,2.1,3.9s1.4-3.3,0.7-4.9c9.9-4.7,31-3.2,31-3.2l-16.3-5.8
			c0,0,6.5-0.5,19.8,4.9c-1-1.5-4.9-5.2-4.9-5.2s13.9,8.9,20.1,14.6c-2.4-0.1-7.6,1-7.6,1s11.5-0.3,12.7-0.3
			C598,296.9,613.5,296.3,617.8,300.3z M557.2,275.9c2.8,8.9,0.3,12.9,3.1,20.7l-14.9-11.5c1.6,3.3,4.6,7.4,5.9,9
			c-4.2-1.8-8.6-3.4-16.3-3.6C538.1,277.8,555.9,272.5,557.2,275.9z"/>
		<path class="st5" d="M620.2,319.4c0,6.7-2.5,14.4-7.6,23.2c-5.8,8.5-13,15.1-21.5,19.7c-8.5,4.4-15.9,6.3-22.2,5.9
			c4.6-5.8,8.5-13.3,8.7-18c7.8,2.6,14.6-5.2,14.6-5.2s-12.9,8.2-17.6,1c-2.5-3.5-2.8-8-0.7-13.5c1.8-5.5,5.3-10.8,10.4-15.6
			c5.1-4.6,12.8-9.1,17.3-10.8C623.3,295.8,620.2,319.4,620.2,319.4z"/>
		<path class="st6" d="M496.8,344.7l4.2,0.4l2.8,2.5l-3.8-0.4L496.8,344.7 M503.1,343c-0.7-0.8-2-2.4-2-2.4l2.8-5.9
			c0.4-2.8-0.2-4.4-2.1-4.9c0.7-5.6,2.5-10,5.2-13.2c2.8-3.3,5.9-6.1,6.6-3.8C515.8,319.2,509.5,323,503.1,343z M520.7,345.7
			c-1.4-0.2-5.5-1-5.5-1l3.4-6.2c0.5-2.5,0-4.7-1.7-4.2c6.3-14.9,17.5-18.8,18-16.4C536.3,325.4,527.2,333.5,520.7,345.7z"/>
		<path class="st7" d="M531.5,361.3c0,0,5.4,0.8,11.2,1.3c0,6.5-6.1,14.3-8.1,15.7c-3.7,2.3-10.1,2.8-10.1,2.8l4.5-5.2l-3.8,3.5
			c-2.3,1.6-4.4,2.8-6.3,3.4c-3.7,1.6-7.7,0.5-10.1-3.1c-3.4-5.4-3.4-11.8-3.4-11.8l-0.4,5.2L501,369c0,0-3.3-3.5-4.2-4.5
			c-1.3-4.5-1-6.7-1-6.7c2.2,1.1,5.8,1.5,5.8,1.5c1.8,1.9,4.2,2.9,7.2,3.1l1.8,9.7c0.4,3.9,2.5,6.1,6.2,6.6c2.8,0,5.8-1.6,9-4.9
			C529.2,370.8,531.1,366.7,531.5,361.3 M521.8,355.8c0,0-6.2,4.6-14.6,4.5c-4.8-0.1-8.7-5.5-10.8-6.2l3.1,3.1
			c-18.2-10.4-5.9-25.9,3.4-12.8c-1.6-1.1-4.9-1.4-4.9-1.4c-1.6-0.4-2.6-0.1-3.1,1c-0.7,1.8-0.2,3.4,1.4,4.9l2.8,3.1l3.1-1.4l3.1-1
			c0,0,0.7-1.6,0.7-2.8c8.3-2.1,14-0.2,17,1C520.3,352.3,521.8,355.8,521.8,355.8z"/>
		<path class="st8" d="M521.4,372.8c2.3-4.6,5-6.9,8-6.9c-1.4,3-3.1,5.7-5.2,7.9c-2.1,2.1-4.9,4.1-8.4,3.5c-5.5-1,6.7-10.5,6.9-9.4
			C523,369,521.4,372.8,521.4,372.8"/>
		<path class="st9" d="M448.7,457c0.4,1.8,0.2,3.9-0.7,6.3c-1.2,1.8-1.2,4.6,0,8.3l4.5,8.7l2.1,6.3c0.2,1.8-0.2,3.3-1.4,4.2
			l-6.6-1.4c-3.3-1.7-6.1-4.9-8.7-9.7c-1.8-4.2-2.5-8.1-2.1-11.8c0.7-3.9,1.8-6.6,3.4-8l2.5,5.6l-1-4.9l2.1-4.9l3.4-0.4L448.7,457
			 M568.6,448.3l-2.8-9c2-0.9,3.9-0.4,5.5,1.7c1.4,2.1,2.1,5.5,2.1,10.4c-0.9,7.4-3.3,13.2-6.9,17.3c-3.9,3.9-6.6,5.4-8,4.5
			c-1.6-1.8-1.8-4.5-0.7-7.9l2.4-11.1l-1.7-9c-0.4-3.2,0.2-5.2,2.1-5.8c1.8-0.2,3.4,0.8,4.9,3.1L568.6,448.3z M514.5,394.6l-4.2,3.4
			l-3.1,3.5c-5.3,1.4-9,3.1-11.1,5.2c-2.5,2.1-3.1,4.4-1.8,6.9l4.9,1l6.3-2.1l1,6.6c0,0,2.8,3.4,4.9,3.8
			c9.3,11.2,10.4,40.3-14.9,43.4c-13.3,1.6-44.9-29.4-2.8-78c1.8,0.9,2.8,2.3,2.8,4.2l-1.4,5.2c-0.9,1.8-0.6,3.3,1,4.5l4.1-2.5
			l6.6-5.2C509.2,393,511.8,393,514.5,394.6z"/>
		<g>
			<path d="M489.9,341.4c-4-4-18.1-12.6-18.1-12.6s13.4,6.1,19.2,11.7l0,0c0.2,0.3,0.2,0.7-0.1,1l0,0c-0.1,0.1-0.3,0.2-0.4,0.2l0,0
				C490.2,341.7,490,341.6,489.9,341.4L489.9,341.4z"/>
			<path d="M489.3,345.2c-8.7-2.7-18.9-2.7-18.9-2.7s9.6-1.4,19.3,1.4l0,0c0.4,0.1,0.5,0.5,0.4,0.9l0,0c-0.1,0.2-0.2,0.3-0.3,0.4
				l0,0C489.7,345.2,489.5,345.2,489.3,345.2L489.3,345.2z"/>
			<path d="M515.2,351.1c-0.1-0.4,0-0.8,0.4-0.9l0,0c15.6-3.7,29.2-1.7,29.2-1.7s-20.6,0.5-28.7,2.9l0,0l0,0c-0.1,0-0.2,0-0.2,0l0,0
				C515.6,351.5,515.3,351.3,515.2,351.1L515.2,351.1z"/>
			<path d="M548.9,359.1c0,0-15.3-4.6-27.8-4.9l0,0c-2.4,0-4.8,0.2-7,0.5l0,0l0,0c-0.4,0.1-0.7-0.2-0.8-0.6l0,0
				c-0.1-0.4,0.2-0.7,0.6-0.8l0,0c2.3-0.4,4.8-0.5,7.2-0.5l0,0C535,352.9,548.9,359.1,548.9,359.1z"/>
		</g>
	</g>
	<g>
		<path class="st0" d="M259.3,436.9c-72.6-9-85.9-67.8-133-63c1.8-1.2,6.6-6.1,6.6-6.1s-14.1-3.5-33.1,10.7
			c-1.7-4.2-10.3-29.2,10.6-54.1C52,292.1,78,244.9,77.1,202.5c0-18.1-9.2-44.8-37.2-42.8c61-27.5,118.7,9,150.6,33.7
			c13.6-11,28.3-20.1,44-27.4c0,0,10.8-4.5,13-5.5c26.8-53.1,77.2-58.7,77.2-58.7s-39.1,26.7-28.5,64.2c16.2-0.4,27.9,5.5,27.9,5.5
			s-13.8-1.6-26.7-0.3c0.2,2.4,0.9,10.4,0.9,10.4s10.7,2.1,21.8,12.4c5-3.4,8.7,2,8.7,2c13.5-7.3,28.2,28.2,28.2,28.2
			c27.1,27.4,9.7,83.5,9.7,83.5c-0.6,4.2-1.1,6.5,0.6,9.8c5,6.7,19.3,2.1,25.1,20.2c-2.8-1.4-3.9-2.5-4.6-2.3
			c14.5,15.2,6,30.2-5.5,34c0,0,1.9-3.4,2.3-4.9c-5.8,7.5-21.9,17.6-21.9,17.6l2-6.6c-24.5,30.3-41.1,29.4-59.8,50.9
			C304.9,426.3,292.2,461,259.3,436.9z M245.9,167c0,0-12.8,5.8-24.2,14.4c9.8-4.6,22.2-9.3,22.2-9.3L245.9,167z"/>
		<path class="st10" d="M214.1,202.6l-2.6,10.1c-0.2,3.3,0.4,7.3,1.7,12.1c-2.3-3.8-3.2-7.9-2.9-12.1
			C210.7,208.2,212,204.9,214.1,202.6 M231.7,190.8c-5.2,5.2-8.8,11.9-10.7,20.2c-2.3,8.1-1.8,17.1,1.4,27
			c-3.3-5.4-4.8-11.3-4.6-17.9c0.2-6.5,1.6-12.6,4.3-18.1C224.6,196.4,227.9,192.7,231.7,190.8z M279.1,172.9l0.3,4.3l-10.4-0.9
			l-12.4,0.6l12.7-2.6L279.1,172.9z M280.9,205.2c6,4.8,9.8,10.1,11.5,15.8c-5.8-5-22.2-16.2-32.3-10.7c-10.1,5.5-9.2,22.6-8.6,24.5
			c-5.6-4.8-9-9.9-10.4-15.3c-1.5-5.8-1.6-10.8-0.3-15.3c1.2-4.6,2.6-9,6.6-10.7C261.5,191,274.8,200,280.9,205.2z M208.6,334.1
			c-2.5-1.5-5.3-2.6-8.3-3.2c2.9,1.4,5,2.6,6.3,3.8l3.2,2c0,0-12.8,26.3-3.5,34.6c-0.6,15.9,3.5,11.6,3.5,11.6
			c2.3,9.4,6.3,18.3,11.8,27c5.4,8.4,11.4,14.9,18.1,19.3c-18.2-7.9-33.2-16.4-44.9-25.6c-11.7-9.2-22.4-17-31.9-23.3
			c-9.6-6.5-20.3-9.2-31.9-8.1l5.8-4.3l4.9,0.3l3.4,1.2c-13.8-10.2-39.5-4.7-44.3,4.3c-0.7-49.3,16-43.8,49.8-80.9
			c0,0,7.1-8.9,2.3-14.1c-2.7-1.9-5-2.5-6.9-1.5c-2.3,0.6-4.2,1.8-5.8,3.8l-2.6,5.8c-0.8-5,0.4-15,13.5-15.6
			c-11.8-7.8-22.8,3.5-22.8,3.5s6.7-13.7,18.7-15.9l1.4,2.6c0.4,0.8,1.4,1.3,3.2,1.4c-2.7-4.2-3.4-8.3-2-12.4c1.5-4,3.6-7,6.3-8.9
			c-2.9,3.6-4.1,7-3.8,10.1c0,3.1,0.9,5.5,2.6,7.2c1.4,1.4,3.2,1.9,5.5,1.7c12.2-2.6,10.4-17.3,10.4-17.3l1.7,7.2
			c0.6-5-0.3-10.6-2.6-16.7c-2.7-6.3-5.7-12-8.9-16.9c-7.1-10.8-15.9-20.2-26.5-28.2c-8.8-6.7-18.3-12.5-28.2-17.3
			c-18.8-8.4-38.8-12.7-59.9-12.7c17.1-4.2,32.6-5.7,46.6-4.3c13.8,1.4,26.6,4.4,38.3,9.2c11.3,4.4,21.5,9.6,30.8,15.6
			c8.8,5.6,17,10.4,24.5,14.6c7.3,4,13.9,6.4,19.9,6.9l-6.9-3.2c-2.7-1-5-2.1-6.9-3.5c3.8-3.5,9.9-7.8,18.2-13
			c8.2-5.4,17.4-10.3,27.4-14.7c10-4.6,19.8-7.6,29.3-8.9c-14.4,4.2-26.6,9.4-36.5,15.6c0,0-20.2,13.2-23.3,17
			c49.5-24.4,90.7-22.9,101.6-21.3c0,0-52.6,2-65.9,12.1c0,0,48.9-7.5,75.7,15c-0.8,1.7-0.9,3.7-0.3,5.8c0.4,1.9,1.1,3.5,2,4.9
			l0.6-8.4c0.8-2.5,2.9-2.8,6.3-0.9c-1.7,3.5-2.3,7.3-1.7,11.5c0.6,4.2,1.7,8.2,3.5,11.8c1.7,3.4,3.4,5.8,4.9,7.2l0.3-4.3l0.6-7.2
			c0.2-2.5,0.9-4,2.3-4.6c1.5-0.6,3.9,0.3,7.2,2.6l9.5,9.5c0,0,27.7,25.4,9.5,86.1c-0.4,1.7-0.6,12.1,9.2,13.8
			c9.9,1.7,14.7,8.6,14.7,8.6l-4.6-0.7c0,0,22.2,19.3,2.2,35c0.4-0.6,3.1-4.8,1.5-6.6c-9.9,10.7-20.6,17.9-20.6,17.9
			s3.8-7.7,4.8-13.3c-18.6,24.5-32.8,31.4-32.8,31.4c4.6-7.3,8.2-14.9,10.7-22.8c0,0,16.4-8.9,21.9-25.3l0.9-1.7
			c1-4,1.4-7.9,0.8-10.4l-0.3-1.4c-0.6-2.7-1.3-5.9-4.9-8.4c-5.2-3.8-13.2-2.3-13.2-2.3c5.9-17.7,8.7-32.4,8.3-44.1
			c-0.4-12.1-2.2-21.3-5.5-27.6c-3.3-6.2-6.1-9.5-8.4-10.1c-3.4-0.6-6.1,0.2-8.1,2c-2.1,1.7-3.5,4.4-4,8.1c-1.3-4.2-3-6.9-4.9-8.1
			c-2.1-1.2-3.8-0.6-5.2,1.7l-4-13l-4-6.3c-3.3-3.8-6.4-5.3-9.5-4.3c-2.3,0.8-3.7,2.7-4,5.8v3.5l0.6,7.4c0.6,3.8,1.4,7.6,2.6,11.2
			c-3.6-5-6.6-7.1-8.9-6.6c-2.5,0.6-3.8,3.2-4,7.8l-5.8-7.8l-8.6-7.5c-3.3-1.9-6.3-2.5-9.2-1.7c-4.2,1.2-7.4,5.8-9.5,13.8
			c-1.9,7.9-1.9,18.4,0,31.6c2.1,13.3,7.3,28.3,15.6,45.2c0,0-5.5-0.9-8.6-0.9c-1.7-10.3-7.2-15.5-7.2-15.5s12.6,20.3-1.2,33.7
			l-1.7,1.4c-6.3,4.2-12.8,5.9-19.3,5.2c-6.4-0.7-13.1-3.4-20.2-8L208.6,334.1z M320,103.5l-6.3,6.1l-12.4,13.5
			c-5,5.6-9.4,11.9-13.3,19c-4,7.5-6.6,15.6-7.8,24.2c0,0-13.8,0.7-34.2,5.8l2.6-6l14.4-5.5l17-5.2c-6.7-0.8-15.8,0.5-27.4,3.7
			c7.9-13.4,16.7-24.2,26.5-32.3c9.4-7.7,18.1-13.3,25.9-16.9L320,103.5z"/>
		<path class="st5" d="M95.8,168.9c7.3,2.9,14.5,6.4,21.8,10.7l19.9,14.1c12.1,10.4,21.5,22.5,28.2,36.3c1.5,3.8,2.5,8.1,2.9,12.7
			c0.6,7.2-2.1,16.1-9.8,14.7c-9.4-2,0.7-20.7,0.7-20.7s-15.7,8.1-12.5,20.7c0,0-21.8,3.6-21.6,23l8.1-7.5c3.1-1.9,6.6-2.7,10.6-2.3
			c-3.6,1-6.3,3.6-8,8.1c-1.6,4.4-0.6,8.7,2.9,12.9c-0.4-1.9,5.8-17.1,11.8-11.8c2.1,1.2,1.3,4.5-1.4,10.1
			c-2.7,4.9-8.1,10.3-16.1,15.8l-20.4,16.7l-13.6-9.5c-7.9-7.7-13.6-16.5-17.2-26.5c-4-10.2-6-21-5.8-32.6
			c0.8-16.1,2.2-31.9,4.3-47.5l-0.6-11L77,184.1L71.8,172c-2.3-4.2-5.4-7.8-9.2-10.7l-0.9-0.6C73.3,162.2,84.6,164.8,95.8,168.9
			 M295,180.4l-12.4-2.9v-4.9l12.4-1.1V180.4z M292.7,147.3c-0.8,5-0.4,10.8,0.8,18.3l-10.7,0.5c0-3.8,1.1-7.7,3-12.1
			c1.5-4.6,3.4-8.8,5.5-12.7l5.2-8.4C294.5,137.5,293.3,142.3,292.7,147.3z"/>
		<path class="st11" d="M346.3,244.3c2.5,0.4,5.2,3.2,8.1,8.4c2.5,5.2,4.3,11.8,5.5,19.9c1.2,8.3,0.7,16.9-1.4,25.9
			c-0.8-5.2-2.8-8-6.1-8.4c-3.3,0.4-6,4-8.1,11c-2.5,6.7-3.1,15.2-1.7,25.3l-7.8,2.9c2.9-16.3,3.9-32.9,2.9-49.8
			c-1.4-10.9-1.2-19.4,0.6-25.6C339.5,247.3,342.2,244.2,346.3,244.3 M286.3,244.3c5.4,6.2,10.2,14.5,14.4,25.1
			c4,10.4,6,21.4,5.8,33.1c-1.9-6-3.9-9.6-6-11c-1.9-1.5-3.4-2.1-4.3-1.7c-2.9,0.8-5,3.2-6.3,7.5c-1.5,4.2-2,9.3-1.4,15.3
			c0.4,5.8,1.6,11.4,3.7,17l-4.9,0.9c0,0-4.2-3.4-9.2-5.2c-4.7-10.8-11.1-30-13-42.9c-2.3-13.1-2.8-23.5-1.4-31.4
			c1.3-8.3,4-13.1,8.1-14.4C275.9,235.6,280.8,238.2,286.3,244.3z"/>
		<path class="st12" d="M327,333.9c-8.2-5.1-23.6-5.5-23.6-5.5l5.2-19.3c0.8-9.4,0-18.8-2-28.2c-2.1-9.6-5.2-18.4-9.2-26.5
			c-0.6-7.5,0.9-10.2,4.3-8.1c3.3,1.9,6.9,7.8,11,17.6l-2.6-13c-1.7-6.2-2.8-11.9-3.2-17.3v-2.3c0-4.2,1.2-6.8,3.7-7.8
			c3.1-0.4,6.3,2.4,9.5,8.4l0.3,0.6c3.1,5.8,5.2,13.6,6.3,23.6l0.3-5.5c-0.2-2.9,0.7-4.7,2.6-5.5c1.5,0,2.8,1.2,3.7,3.7l2,4.9
			l0.9,4.9l-0.6,4.6l0.6,15l0.6,14.7c-0.2,12.5-1.4,24.8-3.5,36.8c-2.3,1-3.9,1.8-4.9,2.6L327,333.9"/>
		<path class="st13" d="M298.2,301.1c-2.1,0.8-3.7,4.1-4.6,10.1c-1.1,5.6,0.1,11.4,3.5,17.6l-3.7,0.6c-2.7-5.9-4-11.7-4-17.3
			c-0.2-5.6,0.6-10.2,2.3-13.8c1.3-3.6,3-5.7,4.9-6c2.9,0,5.2,2.1,6.9,6.3c1.5,4.2,2.3,8.3,2.3,12.4l-2.6-7.5
			C301.7,301.4,300.1,300.6,298.2,301.1 M357.2,299c0.8,3.5,0.4,7.6-1.1,12.4c-0.2-6.2-1.7-9.2-4.6-9.2c-1.3-0.2-2.8,1.7-4.3,5.8
			c-1.7,4.2-2.1,10.1-1.2,17.6l-2,0.6c-0.6-11.1,0.2-19.5,2.3-25.3c2.1-5.8,4.4-8.4,6.9-8.1C355.1,293.2,356.4,295.4,357.2,299z"/>
		<path class="st6" d="M245.8,375.6c1,8.4,2.9,16.4,5.8,23.9c2.7,7.3,7.2,13.6,13.5,19c3.6,2.3,7.6,3.8,11.8,4.3
			c4.2,0.6,7.6,0.4,12.1-2.6c8.6-5.9,12.6-33.5,22.8-36.3c4.2-1,7.3-2.9,10.4-5.2l8.4-7.5c5.2,8,16.9,2.6,16.9,2.6l-7.5,16.4
			c-2.9,5.4-6.9,9.8-12.1,13.3l-11.5,8.6l-10.4,9.8c1.5-3.6,2-7.3,1.4-10.9c0,0-4.2,27-24.4,29.3c-19.3,1.8-35.6-16.9-36.6-17.3
			l9.5,10.9c-5.2-1-10.9-3.9-17.3-8.9c-6.5-5.2-12.5-12-17.9-20.4c-5.2-8.5-8.9-18.2-11.2-29.1l-1.2,6c0,0-1.7-12.9-0.3-21
			c-2.1,3.2-2.5,7.8-2.5,7.8s-4-11.7,5.7-30.8c1.7,1.4,12.2,11.1,28.3,14.4c2.7,0.7,4.6,6.4,5.2,10.7L245.8,375.6z M337.3,335.6
			c5.3-0.8,10.8,0.4,11.2,2.3c0.5,1.9-1.2,4.2-8.9,5.2c-7.8,1-10-1.1-10.4-2.3C329.1,339.4,332.1,336.5,337.3,335.6z M327,333.9
			c0,0,32.5-15.1,41.2-2.3c8,15.1-20.6,51.3-35.6,38l1.9-3.2c0,0-18.6,15.6-31.1,14.7c-7.2-0.8-11.9-4.4-16.7-9.2l-13.5-14.4l-6.6-6
			c-2.1-2.1-4.6-3.7-7.5-4.9c0,0,9.4-6,9.8-20.5c4.4-1.2,15.2,2.6,17.9,4.3L280,333c0,0,29-5.6,45.8,3.7l-3.2,1.7l-0.9,0.9
			c-1.5,1.2-2.4,2.8-2.6,4.9c0,2.3,1.2,3.8,3.7,4.6l8.1,2.9c2.9,0.8,6.3,2.3,7.5,5.2c4.3-2.1,11.2-9.2,11.2-9.2
			c3.6-3.1,5.5-5.8,5.5-8.1c-0.6-2.3-3.1-4-7.5-5.2c0,0-8.4-3-18.1,1.2L327,333.9z"/>
		<path class="st8" d="M260.5,391.4c3.3,1.5,6.7,5.2,10.4,10.9l-3.2-6.9c2.5,0,17.7,3.6,20.7,22.1c-2.1,2.5-5.3,3.6-9.5,3.2
			c-4.6-0.4-9-2.3-13.3-5.7c-3.8-3.5-6.9-7.8-9.2-13c-2.7-5.2-4.3-9.7-4.9-13.5L260.5,391.4"/>
		<g>
			<path d="M369.8,335c-0.2-0.5,0-1,0.5-1.2l0,0c33.5-14,59.2-15.7,59.2-15.7l0,0c0.1,0.5-24.6,3-58.4,17.5l0,0
				c-0.1,0.1-0.2,0.1-0.4,0.1l0,0C370.3,335.5,370,335.3,369.8,335L369.8,335z"/>
			<path d="M380.3,347c-5.8,0-10.7,0.4-10.8,0.4l1.1-2c32.2-2,54.4,9.7,54.4,9.7S403,346.6,380.3,347L380.3,347z"/>
			<path d="M286.9,340.3c-45.1-28.3-89.7-34.7-89.7-34.7l0,0c0-0.5,42.3,2.7,90.8,33.1l0,0l0,0c0.4,0.3,0.6,0.9,0.3,1.3l0,0
				c-0.2,0.3-0.5,0.4-0.8,0.4l0,0C287.3,340.5,287.1,340.4,286.9,340.3L286.9,340.3z"/>
			<path d="M285.9,350.9c-17.9-8.3-46.3-10.6-71.9-10.6l0,0c-15.1,0-57.4,2.3-57.4,2.3l0,0c-0.1-0.5,27-4.2,57.4-4.2l0,0
				c25.7,0,54.3,2.2,72.7,10.7l0,0c0.5,0.2,0.7,0.8,0.5,1.3l0,0c-0.2,0.3-0.5,0.6-0.9,0.6l0,0C286.2,351,286.1,350.9,285.9,350.9
				L285.9,350.9z"/>
		</g>
	</g>
</g>
</svg>
